<svg xmlns="http://www.w3.org/2000/svg" xmlns:xlink="http://www.w3.org/1999/xlink" viewBox="0 0 352 389.17"><defs><style>.cls-1,.cls-2,.cls-27,.cls-3,.cls-31,.cls-33,.cls-34,.cls-35,.cls-37,.cls-4,.cls-5,.cls-6,.cls-7{fill:none;stroke-miterlimit:10;}.cls-1{stroke:#e7ab83;stroke-width:23px;}.cls-1,.cls-2,.cls-3,.cls-31,.cls-33,.cls-34,.cls-35,.cls-37,.cls-4,.cls-5,.cls-6,.cls-7{stroke-linecap:round;}.cls-2,.cls-3,.cls-4{stroke:#f2ba9c;}.cls-2,.cls-5{stroke-width:7px;}.cls-3,.cls-35,.cls-6{stroke-width:8px;}.cls-4,.cls-7{stroke-width:17px;}.cls-5,.cls-6,.cls-7{stroke:#f4caae;}.cls-8{fill:#e59965;opacity:0.51;}.cls-14,.cls-15,.cls-8{isolation:isolate;}.cls-9{fill:#ffc59a;}.cls-10{fill:#e79e6e;}.cls-11{fill:url(#Безымянный_градиент_2);}.cls-12{fill:url(#Безымянный_градиент_2-2);}.cls-13{fill:#ec9f8b;}.cls-14{fill:#e2af80;opacity:0.63;}.cls-15{fill:#d88b56;opacity:0.65;}.cls-16{fill:#4f2203;}.cls-17{opacity:0.5;}.cls-18{fill:#4c250a;}.cls-19{fill:#351804;}.cls-20{fill:#351b09;}.cls-21{fill:#331a09;}.cls-22{fill:#351808;}.cls-23{fill:#7cb76e;}.cls-24{fill:#8ed67f;}.cls-25{fill:url(#Безымянный_градиент_3);}.cls-26{fill:url(#Безымянный_градиент_4);}.cls-27{stroke:#d43200;stroke-width:22px;}.cls-28{fill:#6b4120;}.cls-29{fill:#8e6136;}.cls-30{fill:#8d6033;}.cls-31{stroke:#000;}.cls-31,.cls-34{stroke-width:2px;}.cls-32{fill:#af2a0b;}.cls-33{stroke:#992608;}.cls-33,.cls-37{stroke-width:3px;}.cls-34{stroke:#020202;}.cls-35{stroke:#a5a59a;}.cls-36{fill:#e7ab83;}.cls-37{stroke:#8c2509;}.cls-38{fill:#992608;}</style><linearGradient id="Безымянный_градиент_2" x1="311.83" y1="591.31" x2="311.79" y2="598.24" gradientTransform="translate(-116.35 -542)" gradientUnits="userSpaceOnUse"><stop offset="0.51" stop-color="#42210b"/><stop offset="0.62" stop-color="#46250e"/><stop offset="0.73" stop-color="#533117"/><stop offset="0.85" stop-color="#684625"/><stop offset="0.97" stop-color="#856239"/></linearGradient><linearGradient id="Безымянный_градиент_2-2" x1="255.24" y1="594.77" x2="277.24" y2="594.77" xlink:href="#Безымянный_градиент_2"/><linearGradient id="Безымянный_градиент_3" x1="177.79" y1="815.64" x2="173.37" y2="658.7" gradientTransform="translate(0 -520)" gradientUnits="userSpaceOnUse"><stop offset="0" stop-color="#fff"/><stop offset="0.12" stop-color="#eee"/><stop offset="0.32" stop-color="#d7d7d7"/><stop offset="0.51" stop-color="#cacaca"/><stop offset="0.68" stop-color="#c5c5c5"/></linearGradient><linearGradient id="Безымянный_градиент_4" x1="174.06" y1="748.1" x2="173.74" y2="737.1" gradientTransform="translate(0 -520)" gradientUnits="userSpaceOnUse"><stop offset="0.3" stop-color="#fff"/><stop offset="0.39" stop-color="#d7d7d7"/><stop offset="0.5" stop-color="#afafaf"/><stop offset="0.61" stop-color="#8f8f8f"/><stop offset="0.72" stop-color="#787878"/><stop offset="0.82" stop-color="#6b6b6b"/><stop offset="0.91" stop-color="#666"/></linearGradient></defs><title>Ресурс 6</title><g id="Слой_2" data-name="Слой 2"><g id="Слой_1-2" data-name="Слой 1"><line class="cls-1" x1="175.6" y1="123.4" x2="175.6" y2="180.7"/><line class="cls-2" x1="30.4" y1="98.1" x2="14.4" y2="81.1"/><line class="cls-2" x1="32.6" y1="100.3" x2="8.4" y2="90.1"/><line class="cls-2" x1="29.6" y1="102.6" x2="3.5" y2="99.8"/><path class="cls-3" d="M45.8,78.7c5.7,5.5,10.1,12.3,1,20.4-5.4,4.8-14.2,2.8-18.4-2.4-2.9-3.6-3.1-9.9,0-14.4A13,13,0,0,1,33,78.2"/><path class="cls-4" d="M148.4,163.8S98.9,210,58,198s-21-66.2-21.7-90.8"/><line class="cls-5" x1="320.2" y1="106.3" x2="337" y2="90.8"/><line class="cls-5" x1="317.9" y1="108.3" x2="343.3" y2="99"/><line class="cls-5" x1="321.1" y1="110.4" x2="348.5" y2="107.8"/><path class="cls-6" d="M304,88.7c-5.9,5-10.5,11.2-1,18.6,5.7,4.4,14.9,2.5,19.3-2.2,3.1-3.3,3.2-9,0-13.1a12.43,12.43,0,0,0-4.8-3.7"/><path class="cls-7" d="M196.4,166.1s51.9,42.1,94.8,31.1,22-60.3,22.7-82.7"/><ellipse class="cls-8" cx="175.6" cy="119.6" rx="12.6" ry="10.3"/><path class="cls-9" d="M216.9,80.5c0,27.5-9.9,44.2-41.8,44.2-29.7,0-42.9-16.7-42.9-44.2s-11-58.8,42.9-58.8C222.4,21.6,216.9,53,216.9,80.5Z"/><ellipse class="cls-9" cx="132.3" cy="72.5" rx="11" ry="8.4"/><ellipse class="cls-10" cx="129" cy="72.4" rx="4.4" ry="4.9"/><ellipse class="cls-9" cx="216.9" cy="72.5" rx="11" ry="8.4"/><ellipse class="cls-10" cx="219.1" cy="72.4" rx="4.4" ry="4.9"/><path class="cls-11" d="M202.7,54.7s-7.3-1.9-11.9,0a38.34,38.34,0,0,1-6.9,1.4V51.7s10.8-3.6,14.8-2.2c3.8,1.4,4.5,1.9,5.8,3.1A21.28,21.28,0,0,1,207,56Z"/><path class="cls-12" d="M143,54.9s6.9-2,11.3,0a36.06,36.06,0,0,0,6.5,1.5V51.8s-10.3-3.8-14.1-2.3c-3.6,1.4-4.3,2-5.5,3.3a22.55,22.55,0,0,0-2.4,3.6Z"/><path class="cls-13" d="M181.7,91.7c0,4.4-3,3.4-6.6,3.4s-6.6.9-6.6-3.4,3-14,6.6-14S181.7,87.3,181.7,91.7Z"/><ellipse class="cls-14" cx="152.6" cy="78.1" rx="12.6" ry="4.4"/><ellipse class="cls-14" cx="196.6" cy="77.3" rx="12.6" ry="4.4"/><path class="cls-15" d="M136.4,86.2c0-25,1.9-46.6,27.3-46.6,2.5,0,43.2-1.3,45.5-.9-4.4-6.1-31.5-7.2-44.5-7.2-39.6,0-31.5,27.3-31.5,51.2,0,17.5,5.2,30,16.6,35.4A44.55,44.55,0,0,1,136.4,86.2Z"/><path class="cls-10" d="M170.1,116.3c2.2-2.2,6.1-2.4,8.8-1,.9.4,1.6-.9.8-1.3-3.3-1.7-7.9-1.4-10.6,1.2C168.4,115.9,169.4,117,170.1,116.3Z"/><path class="cls-10" d="M158.4,106.5a68.12,68.12,0,0,0,22,2.2c4.6-.4,9.6-1.4,12.2-5.6.8-1.2-1.2-2.4-2-1.1-3,4.9-10.5,4.7-15.6,4.6a68,68,0,0,1-16.1-2.3,1.13,1.13,0,0,0-1.3.9A1.44,1.44,0,0,0,158.4,106.5Z"/><path class="cls-16" d="M218,77.3l1.1-53h-9.9s-5,11.7-11,10.8,9.2-.6,13.2,5.4S218,77.3,218,77.3Z"/><g class="cls-17"><path class="cls-18" d="M213.3,25.7c-.6,3.9-3.5,6.7-7,8.5-1.7.9-.2,3.5,1.5,2.6,4-2.1,7.5-5.6,8.3-10.3.4-1.9-2.5-2.7-2.8-.8Z"/></g><path class="cls-19" d="M133.3,74.8s-4-34.6,11-37.1S205.9,36,205.9,36s7.4-.8,8.4-11,.4-25,.4-25-49.4,2.7-64.8,8.1c-8,2.8-16.8,7.5-19.8,26s3.2,43.1,3.2,43.1"/><path class="cls-20" d="M187.7,22.5h4.7a3.76,3.76,0,0,1,3.7,3.7v.7a3.76,3.76,0,0,1-3.7,3.7h-4.7a3.76,3.76,0,0,1-3.7-3.7v-.7A3.63,3.63,0,0,1,187.7,22.5Z"/><path class="cls-21" d="M168.6,10h22a3.33,3.33,0,0,1,3.3,3.3v.6a3.33,3.33,0,0,1-3.3,3.3h-22a3.33,3.33,0,0,1-3.3-3.3v-.6A3.21,3.21,0,0,1,168.6,10Z"/><path class="cls-22" d="M143.3,24.3h23.1a3.33,3.33,0,0,1,3.3,3.3v.6a3.33,3.33,0,0,1-3.3,3.3H143.3a3.33,3.33,0,0,1-3.3-3.3v-.6A3.33,3.33,0,0,1,143.3,24.3Z"/><path class="cls-10" d="M144.9,63.8c.3,8.1,15.9,9.2,14.2.5-.3-1.4-2.5-.8-2.2.6,1,5-9.5,3.9-9.7-1.1-.2-1.5-2.4-1.5-2.3,0Z"/><path class="cls-10" d="M187.5,62.4c-4,6.9,14.8,10,14,1-.1-1.4-2.4-1.4-2.3,0,.2,2.5-2.4,3.2-4.4,3.1-1,0-6.9-.4-5.4-3a1.08,1.08,0,0,0-.5-1.5,1.05,1.05,0,0,0-1.4.4Z"/><path class="cls-23" d="M234.3,199.9h0c-1,1.1.3,2.5,1.8,2,4.3-1.4,9.1-5.3,10.1-8.9l7-24.1c1.4-4.9-4.6-11.3-9-12.2l-8.1-2.7c-4.5-.9,1,6.4-.4,11.3l-7,24.1C227.4,194.2,229.9,199,234.3,199.9Z"/><path class="cls-23" d="M118.6,194.3l5.8,7.3c-5.2,1.4-18-7.9-19.7-12.2l-8.3-21.6c-1.7-4.3,5.2-11.1,10.4-12.5l9.3-3.5c5.2-1.4-1.1,6.1.5,10.4l8.3,21.6C126.6,188.2,123.8,192.9,118.6,194.3Z"/><path class="cls-24" d="M205.4,246.1H147.2c-12.4,0-22.5-8.3-22.5-18.4l-15.2-66.6c0-10.1,25.3-21.8,37.7-21.8h58.3c12.4,0,38.2,12.1,38.2,22.2l-15.8,66.2C227.9,237.8,217.8,246.1,205.4,246.1Z"/><polygon class="cls-25" points="96.4 193.1 253.4 193.1 236.6 261.1 118 261.1 96.4 193.1"/><circle class="cls-26" cx="173.9" cy="222.6" r="5.5"/><path class="cls-27" d="M286.4,307.5a37.61,37.61,0,0,1-11.6,27.1,39.92,39.92,0,0,1-27.9,11.3H110c-21.8,0-39.6-17.3-39.6-38.4A37.61,37.61,0,0,1,82,280.4a39.92,39.92,0,0,1,27.9-11.3H246.8C268.6,269.1,286.4,286.4,286.4,307.5Z"/><path class="cls-28" d="M160.4,333s12.3-2.6,15,.8,1.8,54.7,1.8,54.7-18.2,5.7-19.6-20.4V333Z"/><path class="cls-28" d="M193.5,332.9s-13.7-2.4-16.6,1-.7,54.5-.7,54.5,18.7,5.7,20.2-20.4V332.9Z"/><path class="cls-29" d="M196.4,370.1h-19V389s10.1,1.8,16.1-6.7a4.35,4.35,0,0,0,.4-.7C194.4,380.1,196.4,374.4,196.4,370.1Z"/><path class="cls-30" d="M163,332.2a29.91,29.91,0,0,0,4.6,8.2c3.1,3.6,8.7,3.2,8.7,3.2l-.8-10.3C175.6,333.3,171.5,330.6,163,332.2Z"/><path class="cls-30" d="M188.5,331.4a29.85,29.85,0,0,1-3.7,8.6c-2.5,3.8-7.5,3.8-7.5,3.8l.1-10.5S180.9,330.4,188.5,331.4Z"/><line class="cls-31" x1="176.4" y1="334.1" x2="176.4" y2="388.1"/><path class="cls-32" d="M157.1,360.6H136.8c-.3,0-2.4.7-2.4.4l1.9-28.4a2.68,2.68,0,0,1,2.7-2.9h18.6v30.4c.1.2-.2.5-.5.5Z"/><path class="cls-32" d="M197.1,361.6H218c.3,0,2.5.7,2.5.4l-2-29.4a2.9,2.9,0,0,0-2.8-3h-19V361a.49.49,0,0,0,.4.6Z"/><line class="cls-33" x1="173.9" y1="277.6" x2="173.9" y2="266.6"/><path class="cls-29" d="M157.4,370.1h18V389a14.51,14.51,0,0,1-14.7-7C160.7,381.9,157.4,375.1,157.4,370.1Z"/><line class="cls-34" x1="157.9" y1="357.6" x2="169.9" y2="357.6"/><line class="cls-34" x1="169.9" y1="363.6" x2="157.4" y2="363.6"/><line class="cls-34" x1="195.9" y1="363.6" x2="183.4" y2="363.6"/><line class="cls-34" x1="195.9" y1="357.6" x2="183.4" y2="357.6"/><line class="cls-35" x1="110.4" y1="261.9" x2="240.4" y2="262.2"/><path class="cls-36" d="M163.5,139.1a3.4,3.4,0,0,0-.1,1c0,5,5.6,9,12.5,9s12.5-4,12.5-9a3.4,3.4,0,0,0-.1-1Z"/><line class="cls-37" x1="106.4" y1="267.1" x2="243.4" y2="267.1"/><path class="cls-38" d="M98.7,269.7a16.24,16.24,0,0,0-8.5,2.8c-1.6,1.1-.1,3.7,1.5,2.6a14.67,14.67,0,0,1,7-2.4c1.9-.1,1.9-3.1,0-3Z"/><path class="cls-38" d="M79.4,287.5a13.14,13.14,0,0,0-2.9,7.8,1.5,1.5,0,0,0,3,0,9,9,0,0,1,2-5.7c1.2-1.5-.9-3.6-2.1-2.1Z"/><path class="cls-38" d="M76.2,317.3a13.27,13.27,0,0,0,3.5,8.9c1.3,1.4,3.4-.7,2.1-2.1a9.28,9.28,0,0,1-2.6-6.7,1.54,1.54,0,0,0-1.5-1.5A1.45,1.45,0,0,0,76.2,317.3Z"/><path class="cls-38" d="M90.6,339.1a23.38,23.38,0,0,0,6.7,2.4c1.9.3,2.7-2.6.8-2.9a18.47,18.47,0,0,1-6-2C90.4,335.6,88.9,338.2,90.6,339.1Z"/><path class="cls-38" d="M110.4,344.5h8.9a1.5,1.5,0,1,0,0-3h-8.9a1.5,1.5,0,1,0,0,3Z"/><path class="cls-38" d="M252.9,271a15.25,15.25,0,0,1,9.1,3.4c1.5,1.2,3.6-.9,2.1-2.1a17.74,17.74,0,0,0-11.2-4.3C250.9,267.9,250.9,270.9,252.9,271Z"/><path class="cls-38" d="M274,285.2a16,16,0,0,1,5,4.7c1.1,1.5,3.7,0,2.6-1.5a24,24,0,0,0-6.1-5.8c-1.6-1-3.1,1.6-1.5,2.6Z"/><path class="cls-38" d="M281.7,310.3a7.16,7.16,0,0,1-1.3,6c-1.1,1.6,1.5,3.1,2.6,1.5a10.18,10.18,0,0,0,1.6-8.3c-.4-1.9-3.3-1.1-2.9.8Z"/><path class="cls-38" d="M270.5,334.3a12.24,12.24,0,0,0,5.7-3.8,1.48,1.48,0,0,0-2.1-2.1,8.52,8.52,0,0,1-4.4,3,1.51,1.51,0,0,0,.8,2.9Z"/><path class="cls-38" d="M243.4,343.9a74.23,74.23,0,0,0,10.5-.8c1.9-.3,1.1-3.2-.8-2.9a62.41,62.41,0,0,1-9.7.7,1.5,1.5,0,1,0,0,3Z"/><path class="cls-38" d="M222.5,345.1l5.2-.4c1.9-.1,1.9-3.2,0-3l-5.2.4C220.6,342.3,220.6,345.3,222.5,345.1Z"/><path class="cls-38" d="M129.1,344.8h4.2a1.5,1.5,0,0,0,0-3h-4.2a1.5,1.5,0,1,0,0,3Z"/></g></g></svg>