<svg xmlns="http://www.w3.org/2000/svg" viewBox="0 0 72 61.55"><defs><style>.cls-1{fill:#ff4a57;}</style></defs><title>Ресурс 8</title><g id="Слой_2" data-name="Слой 2"><g id="Слой_1-2" data-name="Слой 1"><path class="cls-1" d="M72,33.86a1.14,1.14,0,0,0-.76-1.07l-16.66-6V7.7h0a1.15,1.15,0,0,0-.72-1.39L36.4.07a1.22,1.22,0,0,0-.8,0L18.18,6.31a1.17,1.17,0,0,0-.73.83h0V26.82l-16.66,6a1.14,1.14,0,0,0-.73.83H0V53.91H0a1.15,1.15,0,0,0,.73,1.33l17.42,6.24a1.22,1.22,0,0,0,.8,0l17-6.1,17,6.1a1.22,1.22,0,0,0,.8,0l17.41-6.24a1.17,1.17,0,0,0,.73-.77h0V33.86ZM17.42,58.77,2.32,53.36V35.5l15.1,5.41Zm1.16-19.88-14-5,13.93-5,14,5ZM34.84,53.36l-15.1,5.41V40.91l15.1-5.41Zm0-21.13-15.1-5.41V9l15.1,5.42ZM22,7.39l14-5,14,5-14,5ZM52.26,9v17.8l-15.1,5.41V14.44Zm0,49.75-15.1-5.41V35.5l15.1,5.41Zm1.16-19.88-13.93-5,14-5,13.93,5ZM69.68,53.36l-15.1,5.41V40.91l15.1-5.41Z"/></g></g></svg>