<svg xmlns="http://www.w3.org/2000/svg" viewBox="0 0 64 59"><defs><style>.cls-1{fill:#ff4a57;}</style></defs><title>Ресурс 7</title><g id="Слой_2" data-name="Слой 2"><g id="Слой_1-2" data-name="Слой 1"><path class="cls-1" d="M32,20.86c-5.17,0-9.37,3.87-9.37,8.64s4.2,8.64,9.37,8.64,9.38-3.87,9.38-8.64S37.17,20.86,32,20.86Z"/><path class="cls-1" d="M64,34.37V24.63l-8.68-1.58a21.5,21.5,0,0,0-1.88-4.19l4.84-6.69L50.8,5.28,43.54,9.74A25.94,25.94,0,0,0,39,8L37.29,0H26.71L25,8a25.94,25.94,0,0,0-4.54,1.74L13.2,5.28,5.72,12.17l4.84,6.69a21.5,21.5,0,0,0-1.88,4.19L0,24.63v9.74L8.68,36a21.5,21.5,0,0,0,1.88,4.19L5.72,46.83l7.48,6.89,7.26-4.46A25.94,25.94,0,0,0,25,51l1.71,8H37.29L39,51a25.94,25.94,0,0,0,4.54-1.74l7.26,4.46,7.48-6.89-4.84-6.69A21.5,21.5,0,0,0,55.32,36ZM32,41.6c-7.24,0-13.12-5.43-13.12-12.1S24.76,17.4,32,17.4s13.13,5.43,13.13,12.1S39.24,41.6,32,41.6Z"/></g></g></svg>