<svg xmlns="http://www.w3.org/2000/svg" viewBox="0 0 62 62"><defs><style>.cls-1{fill:#ff4a57;}</style></defs><title>Ресурс 12</title><g id="Слой_2" data-name="Слой 2"><g id="Слой_1-2" data-name="Слой 1"><path class="cls-1" d="M10.9,53.44,18.27,41.7l7.28,11.74V62h10.9V53.44L43.73,41.7,51.1,53.44V62H62V51.1H53.92L47,40.08h5.8V21.92H47l6.92-11H62V0H51.1V8.56L43.73,20.3,36.45,8.56V0H25.55V8.56L18.27,20.3,10.9,8.56V0H0V10.9H8.08l6.92,11H9.2V40.08H15l-6.92,11H0V62H10.9ZM34.63,21.92v7.26H27.37V21.92H21.55l6.83-11h5.24l6.83,11ZM27.37,40.08V32.82h7.26v7.26h5.82l-6.83,11H28.38l-6.83-11Zm5.45,18.29H29.18V54.73h3.64Zm21.91-3.64h3.64v3.64H54.73ZM49.16,36.45H38.27V25.55H49.16ZM54.73,3.63h3.64V7.27H54.73Zm-25.55,0h3.64V7.27H29.18ZM7.27,7.27H3.63V3.63H7.27Zm5.57,18.28H23.73v10.9H12.84ZM7.27,58.37H3.63V54.73H7.27Z"/><path class="cls-1" d="M41.9,29.18h3.63v3.64H41.9Z"/><path class="cls-1" d="M16.47,29.18H20.1v3.64H16.47Z"/></g></g></svg>