<?xml version="1.0" encoding="utf-8"?>
<!-- Generator: Adobe Illustrator 23.0.2, SVG Export Plug-In . SVG Version: 6.00 Build 0)  -->
<svg version="1.1" id="Слой_1" xmlns="http://www.w3.org/2000/svg" xmlns:xlink="http://www.w3.org/1999/xlink" x="0px" y="0px"
	 viewBox="0 0 103.3 57" style="enable-background:new 0 0 103.3 57;" xml:space="preserve">
<style type="text/css">
	.st0{enable-background:new    ;}
	.st1{fill:#FFFFFF;}
	.st2{fill:#FF4A57;}
</style>
<title>Ресурс 1</title>
<g>
	<g id="Слой_1-2">
		<g class="st0">
			<path class="st1" d="M20.7,43.3l-0.1-13.2l-5.3,10.7h-2.6L7.5,30.5v12.8H2.1V18.5h4.8l7.2,14.3l7.1-14.3H26L26,43.3H20.7z"/>
			<path class="st1" d="M51.8,36.5c0,4.3-2.9,6.8-8.5,6.8H32.2V18.5h10.5c5.4,0,8.1,2.7,8.1,6.5c0,2.4-1,4.3-2.8,5.4
				C50.4,31.4,51.8,33.5,51.8,36.5z M38,23.6v4.8h4c1.9,0,2.9-0.8,2.9-2.4c0-1.6-1-2.4-2.9-2.4H38z M45.9,35.8
				c0-1.7-1.1-2.5-3.1-2.5H38v5h4.9C44.9,38.3,45.9,37.5,45.9,35.8z"/>
			<path class="st1" d="M66,36.7h-3.2v6.6h-5.8V18.5h9.4c5.6,0,9.2,3.5,9.2,9.2c0,3.7-1.5,6.4-4,7.8l4.4,7.8h-6.2L66,36.7z M66,24
				h-3.2v7.3H66c2.4,0,3.6-1.3,3.6-3.6C69.6,25.4,68.4,24,66,24z"/>
		</g>
		<g class="st0">
			<path class="st2" d="M79.6,38c0-3.5,2.1-5.7,4.8-5.7c2.8,0,4.8,2.2,4.8,5.7c0,3.4-2.1,5.8-4.8,5.8C81.7,43.8,79.6,41.4,79.6,38z"
				/>
		</g>
	</g>
</g>
</svg>
