<svg xmlns="http://www.w3.org/2000/svg" viewBox="0 0 60.98 66.02"><defs><style>.cls-1{fill:#ff4a57;}</style></defs><title>Ресурс 13</title><g id="Слой_2" data-name="Слой 2"><g id="Слой_1-2" data-name="Слой 1"><path class="cls-1" d="M10.7,63A1.06,1.06,0,0,0,11.77,64H38.51A1.07,1.07,0,0,0,39.58,63V58.69H52.42a1.07,1.07,0,0,0,1.07-1.07V44.81h6.42a1.06,1.06,0,0,0,1-1.29L57.77,28.7A28.88,28.88,0,1,0,5.32,45.46,29.9,29.9,0,0,1,10.7,63ZM2.27,26.07a26.75,26.75,0,0,1,53.36,2.74,1.5,1.5,0,0,0,0,.22l2.93,13.65H52.42a1.07,1.07,0,0,0-1.07,1.07v12.8H34.23v2.14h3.21v3.2H12.82A31.82,31.82,0,0,0,7.06,44.23,26.75,26.75,0,0,1,2.27,26.07Z"/><path class="cls-1" d="M42,34.48l-1-2.13q.3-.6.54-1.23l2.28-.88a1.21,1.21,0,0,0,.79-1,11.68,11.68,0,0,0,0-3.34,1.21,1.21,0,0,0-.79-1l-2.28-.88q-.24-.63-.54-1.23l1-2.13a1.14,1.14,0,0,0-.17-1.2,13.57,13.57,0,0,0-2.53-2.37A1.37,1.37,0,0,0,38.06,17l-2.28.9a9.87,9.87,0,0,0-1.31-.51l-.94-2.14a1.27,1.27,0,0,0-1-.74,13.34,13.34,0,0,0-3.57,0,1.27,1.27,0,0,0-1,.74L27,17.4a9.87,9.87,0,0,0-1.31.51L23.4,17a1.38,1.38,0,0,0-1.28.16,13.89,13.89,0,0,0-2.53,2.37,1.16,1.16,0,0,0-.17,1.2l1,2.13a11.26,11.26,0,0,0-.55,1.23L17.55,25a1.18,1.18,0,0,0-.78,1,10.79,10.79,0,0,0,0,3.34,1.18,1.18,0,0,0,.78,1l2.28.88q.24.63.54,1.23l-.95,2.13a1.16,1.16,0,0,0,.17,1.2,14.25,14.25,0,0,0,2.53,2.37,1.35,1.35,0,0,0,1.28.15l2.27-.89a11.47,11.47,0,0,0,1.31.51L27.92,40a1.27,1.27,0,0,0,1,.74,14.76,14.76,0,0,0,1.79.11,14.61,14.61,0,0,0,1.78-.11,1.27,1.27,0,0,0,1-.74l.94-2.14a11.47,11.47,0,0,0,1.31-.51l2.28.89a1.34,1.34,0,0,0,1.27-.15,13.91,13.91,0,0,0,2.53-2.37,1.14,1.14,0,0,0,.17-1.2Zm-1.94-5.37a1.23,1.23,0,0,0-.75.79,7.87,7.87,0,0,1-.79,1.8,1.14,1.14,0,0,0-.07,1.06l.89,2a11.94,11.94,0,0,1-1,1l-2.12-.83a1.37,1.37,0,0,0-1.12.06,9.23,9.23,0,0,1-1.92.75,1.26,1.26,0,0,0-.84.7l-.88,2a11.69,11.69,0,0,1-1.45,0l-.88-2a1.25,1.25,0,0,0-.83-.7,9.11,9.11,0,0,1-1.93-.75,1.37,1.37,0,0,0-1.12-.06l-2.12.83a11.94,11.94,0,0,1-1-1l.89-2a1.12,1.12,0,0,0-.07-1,8.14,8.14,0,0,1-.79-1.81,1.23,1.23,0,0,0-.75-.79l-2.13-.82c0-.24,0-.46,0-.68s0-.44,0-.68l2.13-.82a1.23,1.23,0,0,0,.75-.79,8.14,8.14,0,0,1,.79-1.81A1.12,1.12,0,0,0,23,22.46l-.89-2a11.94,11.94,0,0,1,1-1l2.12.83a1.37,1.37,0,0,0,1.12-.06,8.6,8.6,0,0,1,1.93-.75,1.25,1.25,0,0,0,.83-.7l.88-2a11.69,11.69,0,0,1,1.45,0l.88,2a1.26,1.26,0,0,0,.84.7,9,9,0,0,1,1.93.75,1.34,1.34,0,0,0,1.11.06l2.12-.83a11.94,11.94,0,0,1,1,1l-.89,2a1.15,1.15,0,0,0,.07,1.05,8.14,8.14,0,0,1,.79,1.81,1.23,1.23,0,0,0,.75.79l2.13.82c0,.24,0,.46,0,.68s0,.44,0,.68Z"/><path class="cls-1" d="M30.73,21.61a6.22,6.22,0,0,0-6.41,6,6.22,6.22,0,0,0,6.41,6,6.22,6.22,0,0,0,6.4-6A6.22,6.22,0,0,0,30.73,21.61Zm0,9.6a3.61,3.61,0,1,1,3.84-3.6A3.73,3.73,0,0,1,30.73,31.21Z"/><path class="cls-1" d="M41.35,41.15l1.52,1.93a20.41,20.41,0,0,0,3.92-3.55l-2-1.49a17.84,17.84,0,0,1-3.43,3.11Z"/><path class="cls-1" d="M12.48,36.35l2.28-1.09a16.85,16.85,0,0,1-1.32-3.17,16.12,16.12,0,0,1-.64-4.48c0-9.27,8-16.8,17.93-16.8h9.71l-1.66,1.55,1.81,1.69,3.84-3.6a1.12,1.12,0,0,0,0-1.69l-3.84-3.6L38.78,6.85,40.44,8.4H30.73C19.43,8.4,10.24,17,10.24,27.61A18.06,18.06,0,0,0,11,32.73a17.84,17.84,0,0,0,1.5,3.62Z"/><path class="cls-1" d="M50.48,32.73,48,32.09a16.73,16.73,0,0,1-1.87,4.11l2.19,1.23A18.48,18.48,0,0,0,50.48,32.73Z"/><path class="cls-1" d="M16,37.18l-2.11,1.36a19.6,19.6,0,0,0,3.67,3.78l1.65-1.84A17.27,17.27,0,0,1,16,37.18Z"/><path class="cls-1" d="M34.89,44l.6,2.33a20.72,20.72,0,0,0,5.08-1.84l-1.23-2.1A18.79,18.79,0,0,1,34.89,44Z"/><path class="cls-1" d="M19.75,43.83A20.94,20.94,0,0,0,24.7,46l.75-2.3a17.66,17.66,0,0,1-4.32-1.87Z"/><path class="cls-1" d="M32.8,46.72l-.26-2.39c-.6.05-1.2.08-1.8.08a14.65,14.65,0,0,1-3-.22l-.42,2.37a24.36,24.36,0,0,0,3.38.25c.69,0,1.38,0,2.06-.09Z"/><path class="cls-1" d="M25.6,63.62h2.56V66H25.6Z"/><path class="cls-1" d="M30.73,63.62h2.56V66H30.73Z"/><path class="cls-1" d="M35.85,63.62h2.56V66H35.85Z"/></g></g></svg>