<svg xmlns="http://www.w3.org/2000/svg" viewBox="0 0 50 59"><defs><style>.cls-1{fill:#ff4a57;}</style></defs><title>Ресурс 9</title><g id="Слой_2" data-name="Слой 2"><g id="Слой_1-2" data-name="Слой 1"><path class="cls-1" d="M43.33,19.12A2.4,2.4,0,0,0,40.73,17h-.17a.49.49,0,0,1-.48-.31,11.77,11.77,0,0,0-1.24-2.55.36.36,0,0,1,.07-.49l.09-.07a1.87,1.87,0,0,0,0-3l-2.08-1.7a3,3,0,0,0-3.68,0v0a.6.6,0,0,1-.61.05,18.31,18.31,0,0,0-3.2-1.1.41.41,0,0,1-.35-.39,2.41,2.41,0,0,0-2.6-2.13H23.53a2.41,2.41,0,0,0-2.6,2.14.41.41,0,0,1-.34.38,18.13,18.13,0,0,0-3.21,1.1.58.58,0,0,1-.61-.06h0a3,3,0,0,0-3.68,0L11,10.55a1.87,1.87,0,0,0,0,3l.09.07a.36.36,0,0,1,.07.49,11.77,11.77,0,0,0-1.24,2.55.49.49,0,0,1-.48.31H9.27a2.4,2.4,0,0,0-2.6,2.13v2.41a2.41,2.41,0,0,0,2.6,2.13h.31a.5.5,0,0,1,.48.3,11.38,11.38,0,0,0,1.28,2.44.33.33,0,0,1-.09.47l-.25.21a1.87,1.87,0,0,0,0,3l2.08,1.7a3,3,0,0,0,3.68,0l.32-.27a.59.59,0,0,1,.56-.08,17.33,17.33,0,0,0,2.95,1,.42.42,0,0,1,.34.39v.39a2.41,2.41,0,0,0,2.6,2.13h2.94a2.41,2.41,0,0,0,2.6-2.13v-.39a.42.42,0,0,1,.34-.39,17.33,17.33,0,0,0,2.95-1,.59.59,0,0,1,.56.08l.32.27a3,3,0,0,0,3.68,0L39,30.1a1.87,1.87,0,0,0,0-3l-.25-.21a.33.33,0,0,1-.09-.47A11.38,11.38,0,0,0,39.94,24a.5.5,0,0,1,.48-.3h.31a2.41,2.41,0,0,0,2.6-2.13V19.12Zm-2.11,2.41a.45.45,0,0,1-.49.4h-.31a2.59,2.59,0,0,0-2.49,1.51,10,10,0,0,1-1.11,2.12,1.83,1.83,0,0,0,.43,2.53l.26.21a.36.36,0,0,1,0,.57l-2.08,1.71a.56.56,0,0,1-.69,0l-.33-.27a3.06,3.06,0,0,0-3-.38,15.46,15.46,0,0,1-2.54.85,2.25,2.25,0,0,0-1.86,2v.39a.45.45,0,0,1-.49.4H23.53a.45.45,0,0,1-.49-.4v-.39a2.25,2.25,0,0,0-1.86-2,15.46,15.46,0,0,1-2.54-.85,3.1,3.1,0,0,0-1.2-.24,2.93,2.93,0,0,0-1.85.62l-.33.27a.56.56,0,0,1-.69,0l-2.08-1.71a.36.36,0,0,1,0-.57l.26-.21a1.83,1.83,0,0,0,.43-2.53,10,10,0,0,1-1.11-2.12,2.59,2.59,0,0,0-2.49-1.51H9.27a.45.45,0,0,1-.49-.4V19.12a.45.45,0,0,1,.49-.4h.17A2.61,2.61,0,0,0,12,17.14,9.72,9.72,0,0,1,13,14.94a1.86,1.86,0,0,0-.45-2.52l-.09-.07a.36.36,0,0,1,0-.57l2.08-1.71a.56.56,0,0,1,.35-.12.6.6,0,0,1,.35.12v0a3.08,3.08,0,0,0,3.13.34,15.34,15.34,0,0,1,2.77-.95A2.24,2.24,0,0,0,23,7.43a.45.45,0,0,1,.49-.4h2.94a.45.45,0,0,1,.49.41,2.24,2.24,0,0,0,1.86,2,15.34,15.34,0,0,1,2.77.95,3.08,3.08,0,0,0,3.13-.34l0,0a.56.56,0,0,1,.69,0l2.08,1.71a.36.36,0,0,1,0,.57l-.09.07A1.86,1.86,0,0,0,37,14.94,9.72,9.72,0,0,1,38,17.14a2.61,2.61,0,0,0,2.52,1.58h.17a.45.45,0,0,1,.49.4v2.41Z"/><path class="cls-1" d="M25,11.09c-6.08,0-11,4.06-11,9s5,9,11,9,11-4.05,11-9S31.08,11.09,25,11.09Zm0,16.35a9.92,9.92,0,0,1-6.37-2.2,7.54,7.54,0,0,1,4.17-2.58,5.72,5.72,0,0,0,4.4,0,7.54,7.54,0,0,1,4.17,2.58A9.92,9.92,0,0,1,25,27.44Zm-2.63-8.22A2.43,2.43,0,0,1,25,17.06a2.43,2.43,0,0,1,2.63,2.16A2.43,2.43,0,0,1,25,21.37,2.43,2.43,0,0,1,22.37,19.22ZM32.71,23.8A9.68,9.68,0,0,0,29,21.35a3.38,3.38,0,0,0,.78-2.13c0-2.15-2.13-3.89-4.74-3.89s-4.74,1.74-4.74,3.89A3.38,3.38,0,0,0,21,21.35a9.68,9.68,0,0,0-3.75,2.45,6.28,6.28,0,0,1-1.21-3.67c0-4,4-7.31,8.92-7.31s8.92,3.28,8.92,7.31a6.28,6.28,0,0,1-1.21,3.67Z"/><path class="cls-1" d="M42.61,6A27.87,27.87,0,0,0,24.82,0,28.16,28.16,0,0,0,9.4,4.51a.76.76,0,0,0-.16,1.21,1.22,1.22,0,0,0,1.48.13A25.92,25.92,0,0,1,24.83,1.73a25.57,25.57,0,0,1,16.3,5.44,17.14,17.14,0,0,1,6.76,13.32,16.56,16.56,0,0,1-5,11.71A.77.77,0,0,0,43,33.42a1.21,1.21,0,0,0,.66.19,1.14,1.14,0,0,0,.82-.32A18.35,18.35,0,0,0,50,20.49C50,15,47.38,9.82,42.61,6Z"/><path class="cls-1" d="M41.16,35.17a1.2,1.2,0,0,0-1.47.19,26.41,26.41,0,0,0-3.63,5.17H14a26.46,26.46,0,0,0-5.83-7.37,17,17,0,0,1-6-12.59,16.85,16.85,0,0,1,5.25-12,.76.76,0,0,0-.14-1.21,1.2,1.2,0,0,0-1.48.11A18.34,18.34,0,0,0,0,20.58,18.64,18.64,0,0,0,6.56,34.33a24.58,24.58,0,0,1,5.3,6.61A2.94,2.94,0,0,0,10,43.52a2.74,2.74,0,0,0,1.09,2.12,2.61,2.61,0,0,0,0,4.24A2.75,2.75,0,0,0,10,52c0,1.65,1.64,3,3.65,3h.06v.24c0,2.08,2.07,3.77,4.6,3.77h13.3c2.53,0,4.6-1.69,4.6-3.77V55h.06c2,0,3.65-1.34,3.65-3a2.77,2.77,0,0,0-1.08-2.12,2.62,2.62,0,0,0,0-4.24A2.76,2.76,0,0,0,40,43.52a3,3,0,0,0-1.81-2.58,24,24,0,0,1,3.24-4.56.77.77,0,0,0-.23-1.21Zm-7,20.06a2.3,2.3,0,0,1-2.49,2H18.35a2.3,2.3,0,0,1-2.49-2V55H34.14v.24ZM20.38,50.75H36.31a1.28,1.28,0,1,1,0,2.51H13.69a1.28,1.28,0,1,1,0-2.51h1.76a.88.88,0,1,0,0-1.73H13.69a1.28,1.28,0,1,1,0-2.51H36.31a1.28,1.28,0,1,1,0,2.51H20.38a.88.88,0,1,0,0,1.73Zm15.93-6H13.69a1.43,1.43,0,0,1-1.54-1.26,1.35,1.35,0,0,1,1.25-1.23h.07l.22,0H36.31l.23,0h.07a1.35,1.35,0,0,1,1.24,1.23,1.43,1.43,0,0,1-1.54,1.26Z"/></g></g></svg>