<?xml version="1.0" encoding="utf-8"?>
<!-- Generator: Adobe Illustrator 23.0.2, SVG Export Plug-In . SVG Version: 6.00 Build 0)  -->
<svg version="1.1" id="regular" xmlns="http://www.w3.org/2000/svg" xmlns:xlink="http://www.w3.org/1999/xlink" x="0px" y="0px"
	 viewBox="0 0 512 512" style="enable-background:new 0 0 512 512;" xml:space="preserve">
<style type="text/css">
	.st0{fill:#FFFFFF;}
</style>
<path class="st0" d="M8.9,238.8l125.2,62.4c4.8,2.4,10.6,2.2,15.2-0.5L260.7,236l-67.5,59.8c-3.4,3.1-5.4,7.4-5.4,12v145.6
	c0,15.4,19.6,21.8,28.8,9.6l54.1-72l133.8,76.2c9.4,5.4,21.4,0,23.6-10.8l83.5-416c2.5-12.5-9.9-22.7-21.5-18l-480,187.2
	C-2.7,214.7-3.5,232.7,8.9,238.8L8.9,238.8z M474.6,62.9l-73.4,365.6l-126.8-72.2c-6.9-3.9-15.8-2.2-20.7,4.3l-33.8,44.9v-90.5
	l182.4-161.6c14.4-12.8-2.2-35.5-18.6-25.8l-243,141.3l-85.2-42.4L474.6,62.9z"/>
</svg>
